<svg xmlns="http://www.w3.org/2000/svg" viewBox="0 0 256 256">
<defs><radialGradient id="g" cx="38%" cy="32%" r="80%"><stop offset="0%" stop-color="#c9a2ff"/><stop offset="100%" stop-color="#7b2ff7"/></radialGradient></defs><ellipse cx="128" cy="236" rx="62" ry="10" fill="#7b2ff7" opacity="0.35"/><path d="M84 104 L74 76 L104 92 Z" fill="#7b2ff7" stroke="#1a0f2e" stroke-width="6" stroke-linejoin="round"/><path d="M172 104 L182 76 L152 92 Z" fill="#7b2ff7" stroke="#1a0f2e" stroke-width="6" stroke-linejoin="round"/><circle cx="128" cy="148" r="60" fill="url(#g)" stroke="#1a0f2e" stroke-width="7"/><ellipse cx="107" cy="115" rx="21.599999999999998" ry="12" fill="#fff" opacity="0.25" transform="rotate(-24 107 115)"/><ellipse cx="98" cy="176" rx="20" ry="34" fill="#5a18c9" stroke="#1a0f2e" stroke-width="6" transform="rotate(14 98 176)"/><ellipse cx="158" cy="176" rx="20" ry="34" fill="#5a18c9" stroke="#1a0f2e" stroke-width="6" transform="rotate(-14 158 176)"/><path d="M108 186 q20 14 40 0 M112 200 q16 11 32 0" fill="none" stroke="#e3ccff" stroke-width="5" stroke-linecap="round"/><circle cx="106" cy="136" r="24" fill="#fff" stroke="#1a0f2e" stroke-width="6"/><circle cx="150" cy="136" r="24" fill="#fff" stroke="#1a0f2e" stroke-width="6"/><circle cx="108" cy="138" r="10" fill="#1a0f2e"/><circle cx="104.5" cy="134" r="3.4" fill="#fff"/><circle cx="148" cy="138" r="10" fill="#1a0f2e"/><circle cx="144.5" cy="134" r="3.4" fill="#fff"/><path d="M121 158 L135 158 L128 170 Z" fill="#ffd23e" stroke="#1a0f2e" stroke-width="4" stroke-linejoin="round"/>
</svg>
