<svg xmlns="http://www.w3.org/2000/svg" viewBox="0 0 256 256">
<defs><radialGradient id="g" cx="38%" cy="32%" r="80%"><stop offset="0%" stop-color="#ffffff"/><stop offset="100%" stop-color="#e8dcff"/></radialGradient><radialGradient id="h" cx="38%" cy="32%" r="80%"><stop offset="0%" stop-color="#ffd23e"/><stop offset="100%" stop-color="#f0a63c"/></radialGradient></defs><ellipse cx="128" cy="236" rx="62" ry="10" fill="#b78aff" opacity="0.35"/><path d="M120 100 L128 40 L140 98 Z" fill="url(#h)" stroke="#1a0f2e" stroke-width="6" stroke-linejoin="round"/><path d="M123 82 l13 -4 M125 66 l9 -3" stroke="#1a0f2e" stroke-width="3.5" stroke-linecap="round"/><g transform="rotate(-16 94 108)"><path d="M79 108 L94 78 L109 108 Z" fill="#fff" stroke="#1a0f2e" stroke-width="6" stroke-linejoin="round"/><path d="M86.8 104 L94 89.4 L101.2 104 Z" fill="#ffd9ec"/></g><g transform="rotate(16 162 108)"><path d="M147 108 L162 78 L177 108 Z" fill="#fff" stroke="#1a0f2e" stroke-width="6" stroke-linejoin="round"/><path d="M154.8 104 L162 89.4 L169.2 104 Z" fill="#ffd9ec"/></g><path d="M160 104 Q198 116 196 168 Q186 158 172 160 Q186 178 174 200 Q160 184 152 188 Z" fill="#b78aff" stroke="#1a0f2e" stroke-width="6" stroke-linejoin="round"/><path d="M170 124 q14 10 12 30" fill="none" stroke="#ff9ad2" stroke-width="7" stroke-linecap="round"/><circle cx="128" cy="148" r="56" fill="url(#g)" stroke="#1a0f2e" stroke-width="7"/><ellipse cx="108.4" cy="117.19999999999999" rx="20.16" ry="11.200000000000001" fill="#fff" opacity="0.25" transform="rotate(-24 108.4 117.19999999999999)"/><ellipse cx="105" cy="140" rx="13" ry="15" fill="#fff" stroke="#1a0f2e" stroke-width="5"/><circle cx="107" cy="142" r="7" fill="#1a0f2e"/><circle cx="104.5" cy="139.2" r="2.4" fill="#fff"/><ellipse cx="151" cy="140" rx="13" ry="15" fill="#fff" stroke="#1a0f2e" stroke-width="5"/><circle cx="153" cy="142" r="7" fill="#1a0f2e"/><circle cx="150.6" cy="139.2" r="2.4" fill="#fff"/><path d="M118 170 Q128 180 138 170" fill="none" stroke="#1a0f2e" stroke-width="6" stroke-linecap="round"/><circle cx="88" cy="162" r="9" fill="#ff9ad2" opacity="0.5"/><circle cx="168" cy="162" r="9" fill="#ff9ad2" opacity="0.5"/><polygon points="84.0,74.0 86.4,80.8 93.5,80.9 87.8,85.2 89.9,92.1 84.0,88.0 78.1,92.1 80.2,85.2 74.5,80.9 81.6,80.8" fill="#ffd23e" stroke="#1a0f2e" stroke-width="4" stroke-linejoin="round"/><polygon points="196.0,69.0 197.8,73.6 202.7,73.8 198.9,76.9 200.1,81.7 196.0,79.0 191.9,81.7 193.1,76.9 189.3,73.8 194.2,73.6" fill="#2ff7e6" stroke="#1a0f2e" stroke-width="3.5" stroke-linejoin="round"/>
</svg>
