<svg xmlns="http://www.w3.org/2000/svg" viewBox="0 0 256 256">
<defs><radialGradient id="g" cx="38%" cy="32%" r="80%"><stop offset="0%" stop-color="#ffb3dd"/><stop offset="100%" stop-color="#ff3ea5"/></radialGradient></defs><ellipse cx="128" cy="236" rx="62" ry="10" fill="#ff3ea5" opacity="0.35"/><path d="M182 176 Q222 168 216 132" fill="none" stroke="#1a0f2e" stroke-width="14" stroke-linecap="round"/><path d="M182 176 Q222 168 216 132" fill="none" stroke="#ff6ec0" stroke-width="8" stroke-linecap="round"/><g transform="rotate(-14 86 106)"><path d="M65 106 L86 66 L107 106 Z" fill="url(#g)" stroke="#1a0f2e" stroke-width="6" stroke-linejoin="round"/><path d="M75.92 102 L86 81.2 L96.08 102 Z" fill="#ffd9ec"/></g><g transform="rotate(14 170 106)"><path d="M149 106 L170 66 L191 106 Z" fill="url(#g)" stroke="#1a0f2e" stroke-width="6" stroke-linejoin="round"/><path d="M159.92 102 L170 81.2 L180.08 102 Z" fill="#ffd9ec"/></g><circle cx="128" cy="148" r="58" fill="url(#g)" stroke="#1a0f2e" stroke-width="7"/><ellipse cx="107.7" cy="116.1" rx="20.88" ry="11.600000000000001" fill="#fff" opacity="0.25" transform="rotate(-24 107.7 116.1)"/><path d="M52 142 L84 148 M52 162 L84 158" stroke="#1a0f2e" stroke-width="4" stroke-linecap="round"/><path d="M204 142 L172 148 M204 162 L172 158" stroke="#1a0f2e" stroke-width="4" stroke-linecap="round"/><ellipse cx="104" cy="140" rx="13" ry="15" fill="#fff" stroke="#1a0f2e" stroke-width="5"/><circle cx="106" cy="142" r="7" fill="#1a0f2e"/><circle cx="103.5" cy="139.2" r="2.4" fill="#fff"/><ellipse cx="152" cy="140" rx="13" ry="15" fill="#fff" stroke="#1a0f2e" stroke-width="5"/><circle cx="154" cy="142" r="7" fill="#1a0f2e"/><circle cx="151.6" cy="139.2" r="2.4" fill="#fff"/><path d="M123 164 L133 164 L128 171 Z" fill="#ff6ec0" stroke="#1a0f2e" stroke-width="3.5" stroke-linejoin="round"/><path d="M118 176 Q128 186 138 176" fill="none" stroke="#1a0f2e" stroke-width="6" stroke-linecap="round"/><circle cx="86" cy="164" r="9" fill="#ff6ec0" opacity="0.5"/><circle cx="170" cy="164" r="9" fill="#ff6ec0" opacity="0.5"/>
</svg>
