<svg xmlns="http://www.w3.org/2000/svg" viewBox="0 0 256 256">
<defs><radialGradient id="g" cx="38%" cy="32%" r="80%"><stop offset="0%" stop-color="#ffe27a"/><stop offset="100%" stop-color="#f0a63c"/></radialGradient></defs><ellipse cx="128" cy="236" rx="62" ry="10" fill="#f0a63c" opacity="0.35"/><path d="M104 92 Q94 74 82 72 M152 92 Q162 74 174 72" fill="none" stroke="#1a0f2e" stroke-width="5" stroke-linecap="round"/><circle cx="82" cy="68" r="7" fill="#1a0f2e"/><circle cx="174" cy="68" r="7" fill="#1a0f2e"/><ellipse cx="76" cy="112" rx="34" ry="20" fill="#fff" stroke="#1a0f2e" stroke-width="5" opacity="0.85" transform="rotate(-24 76 112)"/><ellipse cx="180" cy="112" rx="34" ry="20" fill="#fff" stroke="#1a0f2e" stroke-width="5" opacity="0.85" transform="rotate(24 180 112)"/><path d="M128 214 l-8 -14 h16 Z" fill="#1a0f2e"/><ellipse cx="128" cy="156" rx="56" ry="52" fill="url(#g)" stroke="#1a0f2e" stroke-width="7"/><path d="M84 186 a56 52 0 0 0 88 0 Z" fill="#1a0f2e" opacity="0.85"/><path d="M74 148 h108 v18 h-104 Z" fill="#1a0f2e" opacity="0.85"/><ellipse cx="109.8" cy="111.4" rx="18.72" ry="10.4" fill="#fff" opacity="0.25" transform="rotate(-24 109.8 111.4)"/><ellipse cx="106" cy="128" rx="12" ry="13" fill="#fff" stroke="#1a0f2e" stroke-width="5"/><circle cx="108" cy="130" r="6" fill="#1a0f2e"/><circle cx="105.9" cy="127.6" r="2.4" fill="#fff"/><ellipse cx="150" cy="128" rx="12" ry="13" fill="#fff" stroke="#1a0f2e" stroke-width="5"/><circle cx="152" cy="130" r="6" fill="#1a0f2e"/><circle cx="149.9" cy="127.6" r="2.4" fill="#fff"/><path d="M118 146 Q128 156 138 146" fill="none" stroke="#1a0f2e" stroke-width="6" stroke-linecap="round"/><circle cx="88" cy="138" r="9" fill="#ff9ad2" opacity="0.5"/><circle cx="168" cy="138" r="9" fill="#ff9ad2" opacity="0.5"/>
</svg>
