<svg xmlns="http://www.w3.org/2000/svg" viewBox="0 0 256 256">
<defs><radialGradient id="g" cx="38%" cy="32%" r="80%"><stop offset="0%" stop-color="#7df5e5"/><stop offset="100%" stop-color="#18b5a0"/></radialGradient></defs><ellipse cx="128" cy="236" rx="62" ry="10" fill="#18b5a0" opacity="0.35"/><path d="M76 96 L64 62 L96 80 Z" fill="#ffd23e" stroke="#1a0f2e" stroke-width="6" stroke-linejoin="round"/><path d="M180 96 L192 62 L160 80 Z" fill="#ffd23e" stroke="#1a0f2e" stroke-width="6" stroke-linejoin="round"/><path d="M64 150 Q36 138 40 112 Q58 122 70 118 Z" fill="#59d6f7" stroke="#1a0f2e" stroke-width="6" stroke-linejoin="round"/><path d="M192 150 Q220 138 216 112 Q198 122 186 118 Z" fill="#59d6f7" stroke="#1a0f2e" stroke-width="6" stroke-linejoin="round"/><circle cx="128" cy="148" r="58" fill="url(#g)" stroke="#1a0f2e" stroke-width="7"/><ellipse cx="107.7" cy="116.1" rx="20.88" ry="11.600000000000001" fill="#fff" opacity="0.25" transform="rotate(-24 107.7 116.1)"/><path d="M100 176 a34 26 0 0 0 56 0 l0 14 a34 20 0 0 1 -56 0 Z" fill="#d8fff8" stroke="#1a0f2e" stroke-width="5" stroke-linejoin="round" opacity="0.9"/><ellipse cx="104" cy="138" rx="13" ry="15" fill="#fff" stroke="#1a0f2e" stroke-width="5"/><circle cx="106" cy="140" r="7" fill="#1a0f2e"/><circle cx="103.5" cy="137.2" r="2.4" fill="#fff"/><ellipse cx="152" cy="138" rx="13" ry="15" fill="#fff" stroke="#1a0f2e" stroke-width="5"/><circle cx="154" cy="140" r="7" fill="#1a0f2e"/><circle cx="151.6" cy="137.2" r="2.4" fill="#fff"/><path d="M116 166 Q128 182.8 140 166 Q128 170 116 166 Z" fill="#5a1030" stroke="#1a0f2e" stroke-width="5" stroke-linejoin="round"/><path d="M110 160 l5 8 5 -8 M136 160 l5 8 5 -8" fill="none" stroke="#fff" stroke-width="4" stroke-linecap="round"/><path d="M196 196 q10 -18 -2 -30 q-2 12 -12 14 q10 4 6 18 q4 2 8 -2 Z" fill="#ff8a3d" stroke="#1a0f2e" stroke-width="5" stroke-linejoin="round"/>
</svg>
