<svg xmlns="http://www.w3.org/2000/svg" viewBox="0 0 256 256">
<defs><radialGradient id="g" cx="38%" cy="32%" r="80%"><stop offset="0%" stop-color="#ffcf99"/><stop offset="100%" stop-color="#d97b2a"/></radialGradient></defs><ellipse cx="128" cy="236" rx="62" ry="10" fill="#d97b2a" opacity="0.35"/><ellipse cx="76" cy="140" rx="22" ry="42" fill="#a8551a" stroke="#1a0f2e" stroke-width="6" transform="rotate(16 76 140)"/><ellipse cx="180" cy="140" rx="22" ry="42" fill="#a8551a" stroke="#1a0f2e" stroke-width="6" transform="rotate(-16 180 140)"/><circle cx="128" cy="146" r="58" fill="url(#g)" stroke="#1a0f2e" stroke-width="7"/><ellipse cx="107.7" cy="114.1" rx="20.88" ry="11.600000000000001" fill="#fff" opacity="0.25" transform="rotate(-24 107.7 114.1)"/><ellipse cx="104" cy="136" rx="13" ry="15" fill="#fff" stroke="#1a0f2e" stroke-width="5"/><circle cx="106" cy="138" r="7" fill="#1a0f2e"/><circle cx="103.5" cy="135.2" r="2.4" fill="#fff"/><ellipse cx="152" cy="136" rx="13" ry="15" fill="#fff" stroke="#1a0f2e" stroke-width="5"/><circle cx="154" cy="138" r="7" fill="#1a0f2e"/><circle cx="151.6" cy="135.2" r="2.4" fill="#fff"/><ellipse cx="128" cy="172" rx="26" ry="19" fill="#ffe8cc" stroke="#1a0f2e" stroke-width="5"/><ellipse cx="128" cy="163" rx="10" ry="7.5" fill="#1a0f2e"/><path d="M128 170 V178 M128 178 Q118 184 112 178 M128 178 Q138 184 144 178" fill="none" stroke="#1a0f2e" stroke-width="4" stroke-linecap="round"/><path d="M120 186 q8 12 16 0 v8 q-8 8 -16 0 Z" fill="#ff6ec0" stroke="#1a0f2e" stroke-width="4" stroke-linejoin="round"/><path d="M84 196 q44 26 88 0" fill="none" stroke="#ff3ea5" stroke-width="12" stroke-linecap="round"/><polygon points="128.0,200.0 130.9,208.0 139.4,208.3 132.8,213.5 135.1,221.7 128.0,217.0 120.9,221.7 123.2,213.5 116.6,208.3 125.1,208.0" fill="#ffd23e" stroke="#1a0f2e" stroke-width="5" stroke-linejoin="round"/>
</svg>
