<svg xmlns="http://www.w3.org/2000/svg" viewBox="0 0 256 256">
<defs><radialGradient id="g" cx="38%" cy="32%" r="80%"><stop offset="0%" stop-color="#8fe89b"/><stop offset="100%" stop-color="#2e9e4f"/></radialGradient><radialGradient id="c" cx="38%" cy="32%" r="80%"><stop offset="0%" stop-color="#b8f5c0"/><stop offset="100%" stop-color="#63c777"/></radialGradient></defs><ellipse cx="128" cy="236" rx="62" ry="10" fill="#2e9e4f" opacity="0.35"/><circle cx="128" cy="96" r="34" fill="url(#c)" stroke="#1a0f2e" stroke-width="7"/><ellipse cx="114" cy="90" rx="10" ry="11" fill="#fff" stroke="#1a0f2e" stroke-width="5"/><circle cx="116" cy="92" r="5" fill="#1a0f2e"/><circle cx="114.3" cy="90.0" r="2.4" fill="#fff"/><ellipse cx="142" cy="90" rx="10" ry="11" fill="#fff" stroke="#1a0f2e" stroke-width="5"/><circle cx="144" cy="92" r="5" fill="#1a0f2e"/><circle cx="142.3" cy="90.0" r="2.4" fill="#fff"/><path d="M120 106 Q128 114 136 106" fill="none" stroke="#1a0f2e" stroke-width="6" stroke-linecap="round"/><ellipse cx="70" cy="212" rx="18" ry="13" fill="#63c777" stroke="#1a0f2e" stroke-width="6"/><ellipse cx="186" cy="212" rx="18" ry="13" fill="#63c777" stroke="#1a0f2e" stroke-width="6"/><path d="M58 190 a70 62 0 0 1 140 0 a10 10 0 0 1 -10 12 l-120 0 a10 10 0 0 1 -10 -12 Z" fill="url(#g)" stroke="#1a0f2e" stroke-width="7" stroke-linejoin="round"/><path d="M100 142 l28 -12 l28 12 l0 26 l-28 12 l-28 -12 Z" fill="#b8f5c0" stroke="#1a0f2e" stroke-width="5" stroke-linejoin="round" opacity="0.9"/><path d="M70 168 l20 -8 M186 168 l-20 -8 M96 196 l14 -14 M160 196 l-14 -14" stroke="#1a0f2e" stroke-width="5" stroke-linecap="round" opacity="0.55"/><circle cx="102" cy="100" r="9" fill="#ffd23e" opacity="0.5"/><circle cx="154" cy="100" r="9" fill="#ffd23e" opacity="0.5"/>
</svg>
