<svg xmlns="http://www.w3.org/2000/svg" viewBox="0 0 256 256">
<defs><radialGradient id="g" cx="38%" cy="32%" r="80%"><stop offset="0%" stop-color="#8ff09a"/><stop offset="100%" stop-color="#2e9e4f"/></radialGradient><radialGradient id="w" cx="38%" cy="32%" r="80%"><stop offset="0%" stop-color="#ffe27a"/><stop offset="100%" stop-color="#f0a63c"/></radialGradient></defs><ellipse cx="128" cy="236" rx="62" ry="10" fill="#2e9e4f" opacity="0.35"/><path d="M128 210 l-14 26 M140 206 l-4 30 M116 206 l-24 22" stroke="#e5533c" stroke-width="9" stroke-linecap="round"/><ellipse cx="128" cy="152" rx="52" ry="62" fill="url(#g)" stroke="#1a0f2e" stroke-width="7"/><ellipse cx="109.8" cy="111.4" rx="18.72" ry="10.4" fill="#fff" opacity="0.25" transform="rotate(-24 109.8 111.4)"/><path d="M128 96 a52 52 0 0 1 52 52 l-52 4 Z" fill="#e5533c" stroke="#1a0f2e" stroke-width="6" stroke-linejoin="round" opacity="0.95"/><ellipse cx="96" cy="168" rx="19" ry="34" fill="url(#w)" stroke="#1a0f2e" stroke-width="6" transform="rotate(16 96 168)"/><ellipse cx="112" cy="128" rx="13" ry="15" fill="#fff" stroke="#1a0f2e" stroke-width="5"/><circle cx="114" cy="130" r="7" fill="#1a0f2e"/><circle cx="111.5" cy="127.2" r="2.4" fill="#fff"/><ellipse cx="154" cy="132" rx="11" ry="12" fill="#fff" stroke="#1a0f2e" stroke-width="5"/><circle cx="156" cy="134" r="5" fill="#1a0f2e"/><circle cx="154.3" cy="132.0" r="2.4" fill="#fff"/><path d="M124 148 q24 -8 30 8 q2 14 -16 14 q-16 0 -14 -22 Z" fill="#ffd23e" stroke="#1a0f2e" stroke-width="5" stroke-linejoin="round"/><path d="M128 158 q10 2 16 0" fill="none" stroke="#1a0f2e" stroke-width="3.5" stroke-linecap="round"/><g stroke="#1a0f2e" stroke-width="4"><ellipse cx="196" cy="86" rx="8" ry="6.5" fill="#2ff7e6"/><path d="M203 86 V60 q10 2 14 10" fill="none" stroke-linecap="round"/></g>
</svg>
