<svg xmlns="http://www.w3.org/2000/svg" viewBox="0 0 256 256">
<defs><radialGradient id="g" cx="38%" cy="32%" r="80%"><stop offset="0%" stop-color="#ffffff"/><stop offset="100%" stop-color="#ffd9ec"/></radialGradient></defs><ellipse cx="128" cy="236" rx="62" ry="10" fill="#ff9ad2" opacity="0.35"/><g transform="rotate(-10 100 110)"><ellipse cx="100" cy="72" rx="19" ry="48" fill="url(#g)" stroke="#1a0f2e" stroke-width="6"/><ellipse cx="100" cy="76" rx="9" ry="34" fill="#ff9ad2" opacity="0.7"/></g><g transform="rotate(10 156 110)"><ellipse cx="156" cy="72" rx="19" ry="48" fill="url(#g)" stroke="#1a0f2e" stroke-width="6"/><ellipse cx="156" cy="76" rx="9" ry="34" fill="#ff9ad2" opacity="0.7"/></g><circle cx="128" cy="152" r="56" fill="url(#g)" stroke="#1a0f2e" stroke-width="7"/><ellipse cx="108.4" cy="121.19999999999999" rx="20.16" ry="11.200000000000001" fill="#fff" opacity="0.25" transform="rotate(-24 108.4 121.19999999999999)"/><ellipse cx="105" cy="144" rx="13" ry="15" fill="#fff" stroke="#1a0f2e" stroke-width="5"/><circle cx="107" cy="146" r="7" fill="#1a0f2e"/><circle cx="104.5" cy="143.2" r="2.4" fill="#fff"/><ellipse cx="151" cy="144" rx="13" ry="15" fill="#fff" stroke="#1a0f2e" stroke-width="5"/><circle cx="153" cy="146" r="7" fill="#1a0f2e"/><circle cx="150.6" cy="143.2" r="2.4" fill="#fff"/><path d="M124 166 L132 166 L128 172 Z" fill="#ff6ec0" stroke="#1a0f2e" stroke-width="3.5" stroke-linejoin="round"/><rect x="120" y="174" width="16" height="14" rx="3" fill="#fff" stroke="#1a0f2e" stroke-width="4"/><path d="M128 174 V188" stroke="#1a0f2e" stroke-width="3"/><circle cx="88" cy="166" r="9" fill="#ff9ad2" opacity="0.5"/><circle cx="168" cy="166" r="9" fill="#ff9ad2" opacity="0.5"/>
</svg>
