<svg xmlns="http://www.w3.org/2000/svg" viewBox="0 0 256 256">
<defs><radialGradient id="g" cx="38%" cy="32%" r="80%"><stop offset="0%" stop-color="#ffd98f"/><stop offset="100%" stop-color="#e8a33c"/></radialGradient><radialGradient id="j" cx="38%" cy="32%" r="80%"><stop offset="0%" stop-color="#f0a63c"/><stop offset="100%" stop-color="#b05f16"/></radialGradient></defs><ellipse cx="128" cy="236" rx="62" ry="12" fill="#e8a33c" opacity="0.35"/><circle cx="128" cy="146" r="74" fill="url(#j)" stroke="#1a0f2e" stroke-width="7"/><g fill="#8a4510" opacity="0.55"><circle cx="190.0" cy="146.0" r="17"/><circle cx="171.8" cy="189.8" r="17"/><circle cx="128.0" cy="208.0" r="17"/><circle cx="84.2" cy="189.8" r="17"/><circle cx="66.0" cy="146.0" r="17"/><circle cx="84.2" cy="102.2" r="17"/><circle cx="128.0" cy="84.0" r="17"/><circle cx="171.8" cy="102.2" r="17"/></g><circle cx="128" cy="148" r="52" fill="url(#g)" stroke="#1a0f2e" stroke-width="7"/><ellipse cx="109.8" cy="119.4" rx="18.72" ry="10.4" fill="#fff" opacity="0.25" transform="rotate(-24 109.8 119.4)"/><g transform="rotate(-20 94 104)"><path d="M79 104 L94 80 L109 104 Z" fill="#e8a33c" stroke="#1a0f2e" stroke-width="6" stroke-linejoin="round"/><path d="M86.8 100 L94 89.12 L101.2 100 Z" fill="#ffd98f"/></g><g transform="rotate(20 162 104)"><path d="M147 104 L162 80 L177 104 Z" fill="#e8a33c" stroke="#1a0f2e" stroke-width="6" stroke-linejoin="round"/><path d="M154.8 100 L162 89.12 L169.2 100 Z" fill="#ffd98f"/></g><path d="M106 84 l4.84 -22.880000000000003 l7.48 14.1856 l9.68 -21.736 l9.68 21.736 l7.48 -14.1856 l4.84 22.880000000000003 z" fill="#ffd23e" stroke="#1a0f2e" stroke-width="6" stroke-linejoin="round"/><circle cx="128" cy="79.424" r="4" fill="#ff3ea5" stroke="#1a0f2e" stroke-width="3"/><ellipse cx="106" cy="140" rx="12" ry="13" fill="#fff" stroke="#1a0f2e" stroke-width="5"/><circle cx="108" cy="142" r="6" fill="#1a0f2e"/><circle cx="105.9" cy="139.6" r="2.4" fill="#fff"/><ellipse cx="150" cy="140" rx="12" ry="13" fill="#fff" stroke="#1a0f2e" stroke-width="5"/><circle cx="152" cy="142" r="6" fill="#1a0f2e"/><circle cx="149.9" cy="139.6" r="2.4" fill="#fff"/><ellipse cx="128" cy="168" rx="22" ry="15" fill="#ffe9c4" stroke="#1a0f2e" stroke-width="5"/><ellipse cx="128" cy="160" rx="9" ry="6.5" fill="#1a0f2e"/><path d="M128 166 V172 M128 172 Q120 178 114 173 M128 172 Q136 178 142 173" fill="none" stroke="#1a0f2e" stroke-width="4" stroke-linecap="round"/><circle cx="88" cy="162" r="9" fill="#ff9ad2" opacity="0.5"/><circle cx="168" cy="162" r="9" fill="#ff9ad2" opacity="0.5"/>
</svg>
